<svg width="18" height="18" viewBox="0 0 18 18" fill="none" xmlns="http://www.w3.org/2000/svg">
<path d="M17.33 0.670004C17.1408 0.482171 16.9035 0.350125 16.6442 0.288378C16.3849 0.226632 16.1135 0.237574 15.86 0.320004L1.23 5.2C0.958673 5.28598 0.718908 5.45043 0.540989 5.6726C0.363071 5.89476 0.254981 6.16467 0.23037 6.44822C0.205759 6.73178 0.265732 7.01628 0.402714 7.26577C0.539696 7.51526 0.747543 7.71857 1 7.85L7.07 10.85L10.07 16.94C10.1906 17.1784 10.3751 17.3785 10.6029 17.518C10.8307 17.6575 11.0929 17.7309 11.36 17.73H11.46C11.7461 17.7089 12.0192 17.6023 12.2439 17.424C12.4686 17.2456 12.6345 17.0038 12.72 16.73L17.67 2.14C17.7584 1.88794 17.7734 1.61595 17.7132 1.3557C17.653 1.09546 17.5201 0.857661 17.33 0.670004ZM1.85 6.58L14.62 2.32L7.53 9.41L1.85 6.58ZM11.43 16.15L8.59 10.47L15.68 3.38L11.43 16.15Z" fill="white"/>
</svg>
